<!-- Generated by IcoMoon.io -->
<svg version="1.1" xmlns="http://www.w3.org/2000/svg" width="768" height="768" viewBox="0 0 768 768">
<title></title>
<g id="icomoon-ignore">
</g>
<path fill="none" stroke-linejoin="round" stroke-linecap="round" stroke-miterlimit="4" stroke-width="64" stroke="#000" d="M704 541.44v96c0.035 8.912-1.789 17.735-5.36 25.901s-8.807 15.494-15.373 21.52c-6.566 6.025-14.32 10.611-22.765 13.466-8.441 2.857-17.386 3.916-26.263 3.113-98.47-10.697-193.056-44.345-276.16-98.24-77.317-49.13-142.869-114.682-192-192-54.081-83.482-87.736-178.527-98.24-277.438-0.8-8.849 0.252-17.767 3.088-26.189s7.394-16.158 13.385-22.72c5.99-6.563 13.281-11.805 21.409-15.395s16.913-5.448 25.798-5.457h96c15.53-0.153 30.585 5.346 42.36 15.473s19.466 24.189 21.64 39.567c4.051 30.722 11.567 60.887 22.4 89.92 4.305 11.453 5.237 23.901 2.685 35.868s-8.482 22.952-17.085 31.651l-40.64 40.64c45.553 80.114 111.888 146.447 192 191.998l40.64-40.64c8.701-8.602 19.687-14.531 31.651-17.085 11.968-2.551 24.416-1.619 35.869 2.685 29.033 10.835 59.197 18.349 89.92 22.4 15.545 2.195 29.74 10.022 39.888 22 10.15 11.977 15.542 27.267 15.152 42.96z"></path>
</svg>
