<!-- Generated by IcoMoon.io -->
<svg version="1.1" xmlns="http://www.w3.org/2000/svg" width="768" height="768" viewBox="0 0 768 768">
<title></title>
<g id="icomoon-ignore">
</g>
<path d="M168 0c-79.53 0-144 75.216-144 168 0 79.443 47.266 146 110.779 163.498l-23.841 388.593c-1.615 26.349 18.662 47.909 45.061 47.909h24c26.4 0 46.677-21.559 45.062-47.909l-23.841-388.593c63.513-17.499 110.78-84.055 110.78-163.498 0-92.784-64.47-168-144-168zM652 0l-40 240h-30l-20-240h-20.001l-20 240h-30l-40-240h-20v312c0 13.254 10.745 24 24 24h62.504l-23.565 384.091c-1.615 26.349 18.661 47.909 45.061 47.909h24c26.4 0 46.677-21.559 45.062-47.909l-23.565-384.091h62.503c13.255 0 24-10.746 24-24v-312h-20z"></path>
</svg>
